<svg xmlns="http://www.w3.org/2000/svg" viewBox="0 0 360.32 94.09"><defs><style>.cls-1{fill:#eb615c;}.cls-2{fill:#6ca22e;}.cls-3{fill:#a1c53a;}</style></defs><g id="Layer_2" data-name="Layer 2"><g id="Logos"><path d="M111.61,47.64l.34-2.52a4.76,4.76,0,0,1,.23-1.48,7.36,7.36,0,0,1,1-2.91,12.8,12.8,0,0,1,.51-1.49c0-.08.36-1.2,1.09-3.37l.68-1.66a3,3,0,0,1,.29-.88,7.7,7.7,0,0,0,.43-1.31,9.51,9.51,0,0,1,.37-1.29c.53-1,1-1.9,1.43-2.63q1.2-2.28,4.45-2.05l1.83.17a11.7,11.7,0,0,1,2.63,1,4.14,4.14,0,0,1,1.77,1.11,3.17,3.17,0,0,1,.4,2c0,.46.15,2.44.34,5.94s.28,5.28.28,5.32l.29,2.45q0,.35,1.26,8.23l1.25,4c.76,2.14,1.17,3.25,1.23,3.34s.22.51.49,1.23a1.76,1.76,0,0,1-1.09,2.52A3.21,3.21,0,0,1,130.8,63a4.43,4.43,0,0,1-1.32-.51,1.16,1.16,0,0,0-.65-.55,2.64,2.64,0,0,1-.72-.43q-.63-.16-1.14-1.77a3.75,3.75,0,0,1-.63-.91,1.76,1.76,0,0,1-.23-1.31,3.86,3.86,0,0,1-.4-2.12,5.4,5.4,0,0,1-.51-2.68,6,6,0,0,0-.57-2.86,16.18,16.18,0,0,1-6.23,1.43c-.42,0-.63.08-.63.23a8.6,8.6,0,0,1-.34,1.83l-1,6.28q.57,4.23-1,4.45a8.48,8.48,0,0,0-1.51.23,1.84,1.84,0,0,1-1.74-.4,5.56,5.56,0,0,1-1.86-1.51,2.65,2.65,0,0,1-.48-1.74c0-.54.13-1.68.28-3.43a3.09,3.09,0,0,0,.09-1.28,6.78,6.78,0,0,1,.14-1.8l.91-3.54a4.72,4.72,0,0,0,.46-1.72,1.54,1.54,0,0,1-.06-.57ZM119.32,46a4.24,4.24,0,0,1,1.34-.26,8.54,8.54,0,0,0,2.88-1,6.13,6.13,0,0,0-.05-1.37c-.12-1.6-.21-2.74-.29-3.42-.08-.92-.15-1.56-.23-2a24.23,24.23,0,0,0-.85-4.51L119.6,42a15.56,15.56,0,0,0-.63,4.34Z"/><path d="M154.86,51.22a2.37,2.37,0,0,1,0-1q.09-.69.21-1.83c0-1.18,0-1.9.05-2.17L155,45.11c0-.61,0-1.12.05-1.54V41.91a6.35,6.35,0,0,0,0-1.71,18.52,18.52,0,0,1,.09-3.06,19.22,19.22,0,0,1,.28-2.25V33.74q0-.16.06-1.2v-.4a2.14,2.14,0,0,0-.06-1L156,29l.22-1.2a6.81,6.81,0,0,1,.86-1,2.71,2.71,0,0,1,1.31-.17c.77,0,1.34,0,1.72.06a1,1,0,0,1,.74.31,3.58,3.58,0,0,1,.34,1.06,3.23,3.23,0,0,1,.17,1.88,3.28,3.28,0,0,1,.06.52v.57a6.6,6.6,0,0,1-.06,2.34,6.84,6.84,0,0,0,.06.91v.52a10.66,10.66,0,0,1-.17,2v1.43a3.56,3.56,0,0,1-.17,1.42c0,.16,0,.61-.06,1.37-.07.27-.15.59-.23,1a2,2,0,0,1,0,1.19c-.11.12-.07.58.12,1.37a6.91,6.91,0,0,0,.05,2.69v1.14a16,16,0,0,1-.05,3.6v.34A8.12,8.12,0,0,1,160.8,54a12.41,12.41,0,0,1,0,2.45v.35l-.11,1.37q-.63,4.05-3.66,4.62a5.68,5.68,0,0,1-5.88-2l-.34-.86c-.42-.08-1-1-1.66-2.63-1.06-2.55-1.65-4-1.77-4.22-.53-1.49-.8-2.29-.8-2.4l-.11-1.09-.23-.46a4.48,4.48,0,0,1-.29-.68,7.55,7.55,0,0,0-.4-1.71c0-.08-.09-.56-.28-1.43l-.69-5.09c0-.11,0-.3-.05-.57l-.23,1.26c-.27,2.55-.46,4.09-.57,4.63l-.29,5.76v2.29l-.17,2.8c0,1.41.06,2.72.17,3.94a3.26,3.26,0,0,1-.63,2.2,2.61,2.61,0,0,1-1.71.6,17.51,17.51,0,0,1-2.17-.86,1.28,1.28,0,0,1-.54-.94,2.39,2.39,0,0,0-.66-1.23,1.84,1.84,0,0,1-.57-1.14l-.69-4.34q0-.91.09-1.92a12,12,0,0,0,0-2.08,7.8,7.8,0,0,1,.28-2.51,8,8,0,0,0,.32-2.43,16.32,16.32,0,0,1,.11-2.57,21.9,21.9,0,0,0,.17-2.29,2.79,2.79,0,0,1,.18-1.11,6.78,6.78,0,0,1,.11-1.43,7.35,7.35,0,0,1,.34-1.71,6.58,6.58,0,0,1,.17-1.2c.12-.53.23-1.26.35-2.17a6.51,6.51,0,0,1,.62-2.23,10.41,10.41,0,0,1,1.43-1.94,2.6,2.6,0,0,0,.92-1.48A3.68,3.68,0,0,1,143,26.49a1.8,1.8,0,0,1,1.06-.28,2.16,2.16,0,0,1,1.23.39,4.18,4.18,0,0,1,2.74,3l.23,1.43a5.59,5.59,0,0,0,.51,1.54,9,9,0,0,0,.23,1.66,3.84,3.84,0,0,0,.4,1.65c.38,2,.66,3.3.85,4.06a3.19,3.19,0,0,1,.46,1.08c.08.35.23.86.46,1.55a12.08,12.08,0,0,0,.51,2.22,77.22,77.22,0,0,0,2.91,8.63,4.58,4.58,0,0,0,.12-1.43Z"/><path d="M174.79,44.82c0-.91,0-1.46,0-1.65a3.63,3.63,0,0,1,0-.4l.17-1.54a5.52,5.52,0,0,0-.12-1.32,4.32,4.32,0,0,0,.06-.91,1.61,1.61,0,0,0,.11-.66c0-.28.1-1.38.29-3.28-.84.19-1.39.32-1.66.4l-2.28.11a8.83,8.83,0,0,1-2.23.46,7.19,7.19,0,0,1-1.88.4,3.11,3.11,0,0,1-1.89-.23,3.16,3.16,0,0,1-.63-2.11,3.21,3.21,0,0,1,0-1.6,5.72,5.72,0,0,1,.82-1,3.44,3.44,0,0,1,1-.32,3.42,3.42,0,0,0,1.54-.8l3.09-1.25a17.48,17.48,0,0,0,3.37-.86,10.48,10.48,0,0,0,1.26-.17A6,6,0,0,1,177,28a1.58,1.58,0,0,0,.79-.32l3.66-.34a1.71,1.71,0,0,0,.63.11,4.85,4.85,0,0,0,2.11-.28,7.67,7.67,0,0,0,1.54.06,4.13,4.13,0,0,0,1.72-.35,2.59,2.59,0,0,0,.63-.08c.19-.06.62-.16,1.31-.32a1.74,1.74,0,0,1,1,.29c.19,0,.41.08.65.34a5.82,5.82,0,0,1,.77,1.09c.61.91,1,1.44,1.09,1.6a7,7,0,0,1,1,2.45c.15.31.19.52.11.63s-.34.21-.8.29a.94.94,0,0,0-.68-.21c-.27,0-1.09.13-2.46.32l-1-.06a14.52,14.52,0,0,1-3.48.35l-3.54.11-.34.17a41,41,0,0,0-.23,5.48,8.9,8.9,0,0,1,.17,2.29v1.14q.57,10.27.65,10.68a9,9,0,0,1,.09,1.6l.4,4.63a2.21,2.21,0,0,1,.4,1.31c0,.8-.17,1.28-.63,1.43-.8.26-1.45.5-1.94.71a4.71,4.71,0,0,1-2.34.09c0-.12-.44-.31-1.31-.57a6.27,6.27,0,0,0-.75-.86,1.27,1.27,0,0,1-.23-.8,16.11,16.11,0,0,1-.34-3.66,5.14,5.14,0,0,1-.11-2.39,17.56,17.56,0,0,1-.4-2V50.82a1.71,1.71,0,0,0-.29-.91l-.05-1.77Z"/><path d="M193.6,45l.4-4.22a3.37,3.37,0,0,1,.26-1c.17-.46.28-.74.31-.86a1.3,1.3,0,0,1,.12-.4,4.33,4.33,0,0,1,.85-2.68q1.32-3,2-4.51A11.68,11.68,0,0,1,199,28.85c0-.19.44-.49,1.2-.91a9.31,9.31,0,0,1,4.4-1.26,12.36,12.36,0,0,1,3.94.63,4.66,4.66,0,0,1,1.68.85,9.13,9.13,0,0,0,1.23.8,6.71,6.71,0,0,1,2,2.43,8.37,8.37,0,0,1,1.14,2.71,14.89,14.89,0,0,0,.68,2.72,10.08,10.08,0,0,1,.6,2.74,16.63,16.63,0,0,0,.32,2.65,13,13,0,0,1,.25,2.86q-.33,8.06-2.05,11.65c-.23,1.68-.67,2.74-1.31,3.2l-.12.8a3.27,3.27,0,0,1-.66,1.54,4.08,4.08,0,0,1-1.51,1.32,9.22,9.22,0,0,1-2.28.51,27.75,27.75,0,0,1-4,.57,5.55,5.55,0,0,1-3.17-.14,22.59,22.59,0,0,0-2.2-.57,4.22,4.22,0,0,1-1.23-.63,6.14,6.14,0,0,1-1.23-.94,3.39,3.39,0,0,1-1.08-1.09l-.8-1.6a4.06,4.06,0,0,1-1-2.14,5.63,5.63,0,0,0-.57-1.8,13.69,13.69,0,0,1-.51-1.31c0-.27.05-.75.05-1.43v-.57a2.49,2.49,0,0,1,.12-1.66c0-.26.06-.6.08-1s.07-1,.15-1.74V47.3A7.51,7.51,0,0,0,193.6,45Zm6.51,4.17.18,5.14A8.19,8.19,0,0,0,203,58.89a3.81,3.81,0,0,0,1.31.63l1.43.34a1.11,1.11,0,0,0,.63-.23,1.31,1.31,0,0,0,.57-.28,9.26,9.26,0,0,1,.8-.91c.27-.27.38-.4.34-.4a.89.89,0,0,0,.17-.75,2.9,2.9,0,0,0,.46-.74,13,13,0,0,1,1.26-4.11c.15-1.68.23-2.74.23-3.2a17.89,17.89,0,0,0-1.26-5.88c-.46-.54-.69-2.23-.69-5.09a5.76,5.76,0,0,1-.4-1.57,5.36,5.36,0,0,0-.37-1.54,9,9,0,0,0-.48-1.11,1.27,1.27,0,0,1-.2-.55,1.93,1.93,0,0,0-.26-.65c-.61-.92-1.54-.42-2.8,1.48l-1,1.72c0,.07-.19.78-.57,2.11a24.19,24.19,0,0,0-.89,3.57,10.53,10.53,0,0,1-.65,2.37,2.75,2.75,0,0,0,0,.8,6.89,6.89,0,0,1-.23,1.74A11.41,11.41,0,0,0,200.11,49.18Z"/><path d="M239.11,51.22a2.06,2.06,0,0,1,0-1c.06-.46.12-1.07.2-1.83,0-1.18,0-1.9.06-2.17l-.06-1.14c0-.61,0-1.12.06-1.54V41.91a7.33,7.33,0,0,0,0-1.71,19.51,19.51,0,0,1,.08-3.06,18.28,18.28,0,0,1,.29-2.25V33.74c0-.11,0-.51,0-1.2v-.4a2.36,2.36,0,0,0,0-1l.51-2.12.23-1.2a6.18,6.18,0,0,1,.86-1,2.68,2.68,0,0,1,1.31-.17q1.14,0,1.71.06a1,1,0,0,1,.75.31,3.91,3.91,0,0,1,.34,1.06,3.31,3.31,0,0,1,.17,1.88,3.28,3.28,0,0,1,.06.52v.57a7.1,7.1,0,0,1-.06,2.34,6.84,6.84,0,0,0,.06.91v.52a10.66,10.66,0,0,1-.17,2v1.43a3.57,3.57,0,0,1-.18,1.42c0,.16,0,.61-.05,1.37a9,9,0,0,0-.23,1,2.16,2.16,0,0,1,0,1.19c-.11.12-.08.58.11,1.37a7.18,7.18,0,0,0,.06,2.69v1.14a16,16,0,0,1-.06,3.6v.34a9.14,9.14,0,0,1-.11,1.66,14.17,14.17,0,0,1,0,2.45v.35l-.11,1.37q-.63,4.05-3.66,4.62a5.67,5.67,0,0,1-5.88-2l-.35-.86c-.42-.08-1-1-1.65-2.63l-1.77-4.22a22.72,22.72,0,0,1-.8-2.4l-.12-1.09-.22-.46a4.48,4.48,0,0,1-.29-.68,7.55,7.55,0,0,0-.4-1.71c0-.08-.09-.56-.29-1.43l-.68-5.09a4.54,4.54,0,0,0-.06-.57l-.23,1.26c-.26,2.55-.45,4.09-.57,4.63l-.28,5.76v2.29l-.17,2.8c0,1.41,0,2.72.17,3.94a3.26,3.26,0,0,1-.63,2.2,2.61,2.61,0,0,1-1.71.6,17.53,17.53,0,0,1-2.18-.86,1.35,1.35,0,0,1-.54-.94,2.31,2.31,0,0,0-.65-1.23A1.8,1.8,0,0,1,221.4,59l-.68-4.34c0-.61,0-1.25.08-1.92a12,12,0,0,0,0-2.08,7.84,7.84,0,0,1,.29-2.51,8,8,0,0,0,.31-2.43,16.51,16.51,0,0,1,.12-2.57c.11-1,.17-1.81.17-2.29a3,3,0,0,1,.17-1.11,6.67,6.67,0,0,1,.12-1.43,6.77,6.77,0,0,1,.34-1.71,5.79,5.79,0,0,1,.17-1.2c.11-.53.23-1.26.34-2.17a6.73,6.73,0,0,1,.63-2.23,10,10,0,0,1,1.43-1.94,2.6,2.6,0,0,0,.91-1.48,3.72,3.72,0,0,1,1.49-1.09,1.76,1.76,0,0,1,1.05-.28,2.14,2.14,0,0,1,1.23.39,4.14,4.14,0,0,1,2.74,3l.23,1.43a5.4,5.4,0,0,0,.52,1.54,8.78,8.78,0,0,0,.22,1.66,4,4,0,0,0,.4,1.65c.38,2,.67,3.3.86,4.06a3.4,3.4,0,0,1,.46,1.08c.07.35.23.86.45,1.55a12.19,12.19,0,0,0,.52,2.22,77.22,77.22,0,0,0,2.91,8.63A4.58,4.58,0,0,0,239,52Z"/><path d="M269,32.11a1.89,1.89,0,0,1-.94.25c-.33,0-1.17,0-2.54.12a23.52,23.52,0,0,0-2.63.74h-.06a12.11,12.11,0,0,1-.57,3,13.8,13.8,0,0,1-.28,2.23,2.5,2.5,0,0,1-.18.91,4.48,4.48,0,0,0-.17,1.43,16.5,16.5,0,0,0-.34,2.57,1.64,1.64,0,0,1,0,.63c0,.26-.11.66-.23,1.19a9.53,9.53,0,0,0-.17,1.89A6.14,6.14,0,0,1,260.6,49v.63a9.72,9.72,0,0,1-.15,2.91A5.24,5.24,0,0,0,260.2,54a9.54,9.54,0,0,1-.29,1.86,10.24,10.24,0,0,0-.17,3h.34a13.18,13.18,0,0,1,1.51-.09,3.1,3.1,0,0,0,.78-.14l.91,0h.57a2.07,2.07,0,0,1,.74.43,2.91,2.91,0,0,1,.8.83c.27.27.36.52.26.77A4.28,4.28,0,0,1,264.37,62l-1.09.34a2.27,2.27,0,0,1-.8.4,3.33,3.33,0,0,1-1.08.23c-.88.19-1.4.51-1.55,1s-1.06.42-2.74.34h-1.94l-1.09.35a4,4,0,0,1-2.51.28,14.32,14.32,0,0,1-1.45-.43,3.08,3.08,0,0,1-.89-.57,1,1,0,0,1-.43-1c.06-.36.18-.88.37-1.57a15.1,15.1,0,0,1,1.37-1c1.83-.57,3-.95,3.49-1.14a10.87,10.87,0,0,0-.12-2.23,7.23,7.23,0,0,0,.4-2.45,2.46,2.46,0,0,0-.28-1.09V53a10.72,10.72,0,0,0-.06-2.91s.08-.71.23-2q.28-.35,0-1.83c.15-.72.28-1.29.4-1.71l.06-.8a16.39,16.39,0,0,1,.34-2.06v-.57l.11-.46c.69-2.81,1.14-4.87,1.37-6.16a3.8,3.8,0,0,1-.57.11l-1.88.28a3.83,3.83,0,0,1-3.83-1q-1.42-1.93-.06-3.31a5.32,5.32,0,0,1,2.63-1,19.73,19.73,0,0,0,2-.74,8.19,8.19,0,0,0,2.68-1.26c1.41-.19,2.23-.28,2.46-.28l2.68-.34a5.31,5.31,0,0,1,1.37.08c.58.1.92.22,1,.37a9.85,9.85,0,0,1,1.83.69l1.37,1.25a17,17,0,0,1,1.09,1.72C269.39,31.6,269.3,31.94,269,32.11Z"/><path d="M289.2,51.22a2.06,2.06,0,0,1,0-1c.06-.46.12-1.07.2-1.83,0-1.18,0-1.9.06-2.17l-.06-1.14c0-.61,0-1.12.06-1.54V41.91a6.94,6.94,0,0,0,0-1.71,21,21,0,0,1,.09-3.06,16.37,16.37,0,0,1,.29-2.25V33.74c0-.11,0-.51.05-1.2v-.4a2.36,2.36,0,0,0-.05-1l.51-2.12.23-1.2a5.88,5.88,0,0,1,.85-1,2.76,2.76,0,0,1,1.32-.17q1.14,0,1.71.06a1,1,0,0,1,.74.31,3.51,3.51,0,0,1,.35,1.06,3.31,3.31,0,0,1,.17,1.88,3.28,3.28,0,0,1,.06.52v.57a7.1,7.1,0,0,1-.06,2.34,6.84,6.84,0,0,0,.06.91v.52a9.83,9.83,0,0,1-.18,2v1.43a3.56,3.56,0,0,1-.17,1.42c0,.16,0,.61-.05,1.37a9,9,0,0,0-.23,1,2.16,2.16,0,0,1,0,1.19c-.12.12-.08.58.11,1.37a7.18,7.18,0,0,0,.06,2.69v1.14a16.63,16.63,0,0,1-.06,3.6v.34a9.14,9.14,0,0,1-.11,1.66,14.17,14.17,0,0,1,0,2.45v.35L295,58.19c-.42,2.7-1.63,4.24-3.65,4.62a5.67,5.67,0,0,1-5.88-2l-.35-.86c-.42-.08-1-1-1.65-2.63l-1.77-4.22a22.72,22.72,0,0,1-.8-2.4l-.12-1.09-.23-.46a4.43,4.43,0,0,1-.28-.68,8.18,8.18,0,0,0-.4-1.71c0-.08-.1-.56-.29-1.43l-.68-5.09a4.54,4.54,0,0,0-.06-.57l-.23,1.26c-.27,2.55-.46,4.09-.57,4.63l-.29,5.76v2.29l-.17,2.8c0,1.41.06,2.72.17,3.94a3.22,3.22,0,0,1-.62,2.2,2.64,2.64,0,0,1-1.72.6,18.15,18.15,0,0,1-2.17-.86,1.31,1.31,0,0,1-.54-.94,2.32,2.32,0,0,0-.66-1.23,1.84,1.84,0,0,1-.57-1.14l-.68-4.34c0-.61,0-1.25.08-1.92a12,12,0,0,0,0-2.08,7.84,7.84,0,0,1,.29-2.51,8,8,0,0,0,.31-2.43,15.36,15.36,0,0,1,.12-2.57c.11-1,.17-1.81.17-2.29a2.81,2.81,0,0,1,.17-1.11,7.52,7.52,0,0,1,.11-1.43,7.73,7.73,0,0,1,.35-1.71,5.79,5.79,0,0,1,.17-1.2c.11-.53.23-1.26.34-2.17a6.29,6.29,0,0,1,.63-2.23A10,10,0,0,1,275,29.06a2.65,2.65,0,0,0,.91-1.48,3.75,3.75,0,0,1,1.48-1.09,1.8,1.8,0,0,1,1.06-.28,2.14,2.14,0,0,1,1.23.39,4.16,4.16,0,0,1,2.74,3l.23,1.43a5.59,5.59,0,0,0,.51,1.54,9,9,0,0,0,.23,1.66,3.84,3.84,0,0,0,.4,1.65c.38,2,.67,3.3.86,4.06a3.19,3.19,0,0,1,.45,1.08c.08.35.23.86.46,1.55a12.19,12.19,0,0,0,.52,2.22A77.22,77.22,0,0,0,289,53.45a5.11,5.11,0,0,0,.11-1.43Z"/><path d="M301.17,45.76l.4-4.23a3.37,3.37,0,0,1,.26-1c.17-.45.28-.74.31-.85a1.23,1.23,0,0,1,.12-.4,4.33,4.33,0,0,1,.86-2.69c.87-2,1.54-3.52,2-4.51a11,11,0,0,1,1.48-2.45c0-.19.44-.5,1.2-.92a9.44,9.44,0,0,1,4.4-1.25,12.64,12.64,0,0,1,3.94.62,4.9,4.9,0,0,1,1.68.86,10.47,10.47,0,0,0,1.23.8,6.53,6.53,0,0,1,2,2.43,8.37,8.37,0,0,1,1.14,2.71,15.09,15.09,0,0,0,.69,2.71,10,10,0,0,1,.59,2.75,16.76,16.76,0,0,0,.32,2.65,13.69,13.69,0,0,1,.26,2.86q-.34,8.06-2.06,11.65c-.23,1.67-.67,2.74-1.31,3.2l-.12.8a3.28,3.28,0,0,1-.65,1.54,4,4,0,0,1-1.52,1.31,8.14,8.14,0,0,1-2.28.51,26.82,26.82,0,0,1-4,.58,5.66,5.66,0,0,1-3.17-.15c-1.28-.36-2-.55-2.2-.57a4.22,4.22,0,0,1-1.23-.63,5.65,5.65,0,0,1-1.22-.94A3.56,3.56,0,0,1,303.23,62l-.8-1.6a4.18,4.18,0,0,1-1-2.14,5.45,5.45,0,0,0-.57-1.8,12.91,12.91,0,0,1-.51-1.32c0-.26.05-.74.05-1.42v-.58a2.46,2.46,0,0,1,.12-1.65c0-.27.06-.6.08-1s.07-1,.15-1.74V48A7.47,7.47,0,0,0,301.17,45.76Zm6.51,4.17.18,5.14a8.23,8.23,0,0,0,2.68,4.57,3.81,3.81,0,0,0,1.31.63l1.43.34a1.19,1.19,0,0,0,.63-.23,1.25,1.25,0,0,0,.57-.29,10.59,10.59,0,0,1,.8-.91c.27-.27.38-.4.34-.4a.84.84,0,0,0,.17-.74,3.11,3.11,0,0,0,.46-.74,13,13,0,0,1,1.26-4.12c.15-1.67.23-2.74.23-3.19a18,18,0,0,0-1.26-5.89c-.46-.53-.69-2.22-.69-5.08a5.37,5.37,0,0,1-.39-1.57,5.67,5.67,0,0,0-.38-1.54,9.41,9.41,0,0,0-.48-1.12,1.28,1.28,0,0,1-.2-.54,2,2,0,0,0-.26-.66q-.91-1.37-2.8,1.49l-1,1.71c0,.08-.19.78-.57,2.12a23.38,23.38,0,0,0-.88,3.57,11.16,11.16,0,0,1-.66,2.37,2.75,2.75,0,0,0,0,.8,7,7,0,0,1-.23,1.74A11.41,11.41,0,0,0,307.68,49.93Z"/><path d="M329.49,35.17a3.14,3.14,0,0,0,.06-.8V33.29a5.92,5.92,0,0,0-.4-1.35c-.27-.7-.46-1.22-.57-1.57l-1.43-3a1.52,1.52,0,0,1,.66-1.12,3.3,3.3,0,0,1,1.51-.71l1.2-.23a7.65,7.65,0,0,0,.91-.23,6.53,6.53,0,0,1,1.74-.34,3.31,3.31,0,0,1,1.75,1s.16.74.48,2.11a15.91,15.91,0,0,1,.49,3.49,9.77,9.77,0,0,1-.17,2.11c-.12.46-.21.86-.29,1.2s-.11.52-.11.54a2.13,2.13,0,0,1-.12.32,2.07,2.07,0,0,1-.2.4,4.3,4.3,0,0,0-.34.68,12.11,12.11,0,0,1-.69,1.29,10.17,10.17,0,0,1-.8,1.17,5.48,5.48,0,0,1-1.48,1.08,4.5,4.5,0,0,1-2.23.63,3.09,3.09,0,0,1-1.6-.31q-.48-.32-.48-.63a.68.68,0,0,1,.08-.4.66.66,0,0,1,.2-.14C328,39.19,328.58,37.84,329.49,35.17Z"/><path d="M352.15,65.56a4.34,4.34,0,0,1-2.45.4,6.2,6.2,0,0,1-3.37-.46l-1.2-.4-1.77-.86a.81.81,0,0,0-.29,0s-.13,0-.28-.14a3,3,0,0,0-.8-.46,6.54,6.54,0,0,1-1.6-1.43,9.78,9.78,0,0,1-1.83-4.85c0-.15.19-.44.57-.86A3.57,3.57,0,0,1,342,55.16a1.68,1.68,0,0,1,1.08.46L345,58.07a11.74,11.74,0,0,0,1,.92l.75.8,1.14,1a1.07,1.07,0,0,0,.46.11,6.17,6.17,0,0,0,1.25.29,12.66,12.66,0,0,0,1.94-.63,8.1,8.1,0,0,1,.92-.8l.8-.91a4,4,0,0,0,.4-.92c0-.49,0-.83,0-1a8.11,8.11,0,0,0-.2-1.4,4.91,4.91,0,0,0-.8-.91,9.28,9.28,0,0,0-1-1.48,23,23,0,0,0-3.32-1.83l-1.08-.63-1-.91a6.52,6.52,0,0,1-2.11-1.55c-.38-.26-.67-.47-.86-.62a9.47,9.47,0,0,1-1.88-2c0-.07-.33-.8-1-2.17l-.51-2.22.23-1.49a6.35,6.35,0,0,1-.23-2.23,6.78,6.78,0,0,0,.57-1.37c-.11-.57.4-1.69,1.54-3.37,0-.23.84-1.14,2.52-2.74l1.94-1,.91-.4c.34,0,.81-.09,1.4-.17a16.41,16.41,0,0,1,2.66,0,4.94,4.94,0,0,1,2.22.46A20.11,20.11,0,0,1,356,30.43c1.67,1.49,2.59,2.82,2.74,4a10.67,10.67,0,0,1,.11,6.22c0,.16-.53.46-1.59.92l-1.43-.06a6,6,0,0,1-3.49-1.88c-.3-.19-.53-.73-.68-1.6s-.23-1.47-.57-1.66a8.91,8.91,0,0,1-.46-1c-.65-.83-1.08-1.25-1.28-1.25a1.78,1.78,0,0,0-.72.17A5.14,5.14,0,0,0,346.44,38a5.61,5.61,0,0,0,1,4.06c.42.6.68.91.8.91a6.76,6.76,0,0,0,1.31,1.43l.8.85,2.4,1.77,1,1,1.09.69a7.91,7.91,0,0,1,1.77,1.09,15,15,0,0,1,2.8,3.19,13.38,13.38,0,0,1,.91,3.09v2.23L360,59.56a3.5,3.5,0,0,0-.62,1.14s-.21.55-.63,1.54a7.52,7.52,0,0,1-1.37,1.2,12,12,0,0,1-3.83,2.06A5.82,5.82,0,0,1,352.15,65.56Z"/><path class="cls-1" d="M91.06,61.36l.72-2L91,57l.08-1,.11-2.22L91,52.44l.65-2.55L90.31,47.5l-.1-.58.25-2.36L89.3,42l-1-1.94-.4-.6.16-2.63-1.87-1.6-.31-1.57-2.16-2.49L82.6,30.4,81.93,29l-1.86-1.68-1.33-1.1-1-1.08L76,23.26l-2.68-1.21-.91-.25L71,20.07l-2-.24-1.2-1.37-3.28-.68-1.7-.12L62,17.41,59.67,16,57,16.38l-1.87-.23-1.82.35-1.19-.14-2.48-.08-1.69.29-2-.13L44,17H41.77l-1.71,1-1,.06-2.62.3-3,1.38-1,1.31-1.29.37L28.92,23l-1.21,1.16-1.86,1.22-1.36,2.05-.74,1-1.53,1.25-1.3,2-.85,1.54-1.69,2.07-.24,2.4-.69,1.53-.59,3,.38,1.48-.61,1.44.21,3.07.49,1.91.21,1.49.15,1.6.07,3.43,1.76,1.55.15,1.08L21,61.9l1.36,1.61,1.19,1.7,1,.87.79,2.22,2.06,1.27,1.09,1.55L31,72.72l1.88.69,1.82,1,2.09.49,2,.69,1.36.11,2,1.31,2.72-.36,1.89.28,2.1-.38h1.92l1.11-.27L53.9,77l3.27-.91,2.39-1.18L60.65,74l1.6-.33,5.75-3,.82-2,.56-.41L71.25,67a10.61,10.61,0,0,1,1-2.24.87.87,0,0,1,.5-.42c-.34-.93.22-2,.67-3.19.32-.84-.4-1.62-.22-2.44-.13-.15.81-.33.77-.56-.17-1.31-.38-3.92.63-5.15a5.51,5.51,0,0,0-.31-.65,6.94,6.94,0,0,1-.92-3.14,27.78,27.78,0,0,1-1.41-2.7c-.89-2.13-2.3-3.42-3.78-5.14A1,1,0,0,1,68,41a5.51,5.51,0,0,1-.71-.9,23.73,23.73,0,0,1,.84,6.72,11.24,11.24,0,0,1,.44,1.73,5.9,5.9,0,0,1,.14,3.63v0a1,1,0,0,1-.15.42,2,2,0,0,1-.08.22,1,1,0,0,1-.22.33l.19.76-.1,1-.84,1.91-.06,2,0,.72-.92.88-.55,1.08-.53,1.31L61.9,64.6l-.72,1.76-1.79.19L57.28,67l-1.85,1.54-1,.47-.32.1-1.93-.68L49.81,69H48.12l-1.52.27L44.88,69l-1,.14-1.27-.83-2.29-.19-1.46-.51-1.51-.35-1.41-.75-1.63-.6-.6-.38L32.57,64l-1.12-.69-.53-1.52L29.17,60.2l-.78-1.12-1.11-1.34-.34-.68-.37-2.64-1.37-1.2L25,50.88l-.3-2.18L24.28,47l0-.6.89-2.1-.58-2.29.11-.56.83-1.85.14-1.36.71-.87,1-1.78.59-.91,1.28-1,1.35-1.75.74-1.09,1.15-.76,1.39-1.33.7-.54,2.27-.64,1.41-1.79.29-.13,1.18-.14,2.59-.17,1.5-.84h1.39l1.6-.47,1.58.1,1.82-.32,1.25,0,2.17.25,1.8-.34L57,24l1-.15.92.56,2.57.74,2,.13.31.07,1.43,1.63,1.79.22,1,1.28,2.69.71.67.31.69.76,1.46,1.53L75.1,33l.71.64.91,1.89,2,1.34.2.23.42,2.16,1,.87-.08,1.43,1.58,2.36.67,1.3.28.61-.15,1.4.51,2.86.49.88L83.35,52l.3,2.11-.07,1.33-.19,2.46.45,1.32-.48,1.36.13.92-1.35,1.34.22,2.78-.23.61-.73,1.29-1.1,1.91-.3,1-1.17.87L78,72.93l-1.4,1L75.33,76l-.5.67-1.56.84-.82,1L71,78.89,68.87,80.6l-1,.9-.82.29-1.56.39-2.7.58-1,.88-1.26-.12-2.43,1.07-1.58.56-1.09.45-1.11-.07-2.6,0-.77.29-1.38-.78-3.28.41-1.09.3-1.38-.38-1.58.08-1.68-.7-2.16.08-1.17-.3-1.66-.49-.91-.24-1.52-1.54-2.74-.44-1-.33-.64-.42-1.34-1.65-2.65-1.35-.69-.19-.56-1-2.25-1.68-1.69-1-1-.66L18,72.81l-1-1.55-1.37-1.52-.53-.63-.41-1.79-1.11-1.44-.49-2-1.37-1.41-.38-1.26-.66-1.15-.13-2.51-1-.88.24-.86L8.93,53.2l-.46-1.88-.56-1.27v-.88l.16-2.25-.41-1.63L7.85,44l0-2.85.8-1.35L9.38,35l-.08-.54,1.27-1.15V30.41l.2-.55,1.15-1.55.53-1.79.4-.56,1.31-1.09L16,22.69l.53-1.63.35-.33,3.2-1.95,1.58-1.59,1.07-1.26L25.48,14l.71-.65,2.14-.33,1.73-2,.42-.24L32,10.56l2.24-.83,1.12-.56,1.29-.07,2.85-.5,1.64-1.18.36-.08,2.11.29,2.08-.72.59,0,2.28.74,2-.58.87.19,1.88.35,2.51.34,1.25-.2,1.36.65,2.33,0,1,.2,1,.46,2,1.32.78.17,1.86-.07.7.27,1.79,1,1,.24.25.34.07,0c2.16.76,5.86,2,8.1,4.06.32.06.64.12,1,.16l.1-.48a3.29,3.29,0,0,1-1.27-.78,8.9,8.9,0,0,1-1.44-2.91l-.76-.52c-.94-.67-3-2.24-3.55-3.79-.56-.37-1.11-.77-1.65-1.16a9.3,9.3,0,0,0-4-1.79,3.13,3.13,0,0,1-2.33-1.35c-.58-.82-.79-1.39-2-1.45-.65,0-1.3,0-2,0a8.87,8.87,0,0,1-3.38-.88,16.53,16.53,0,0,0-5.41-1C50.32.39,47.8.39,45.41.08l-.88,0a14.34,14.34,0,0,0-4.75.42c-1,.27-1.92.56-2.89.78l-.38.28-.69.12-2.4.13L31.28,2.83l-1.15.42L28,3.58,25.23,5.13l-.79.92-1.66.26-2,1.84-3.18,2.19L16.23,12l-.83.83-3.09,1.89L10,16.9,9.33,19l-.47.56L7.32,20.79,5.61,23.16,5.1,24.9l-1,1.37-1,2.83V30L1.31,31.6l.47,3.34-.36,2.22-1.15,2,.06,4.33L0,45.68l.49,1.91-.1,1.33v2.72l.93,2.1.34,1.4.29.91-.84,3.14,2.1,1.88.06,1.19,1.14,2,.66,2.17,1.21,1.25.38,1.57L7.75,70.6l.44,1.93,1.72,2.08L11,75.81l1,1.52,1.74,2,2,1.27,1.53.88.58.44,1.31,2.4,3,.83.55.28,1.08,1.33,2.42,1.58,2.48.84.93.15,1.27,1.27,2.7.7,1.68.49,2.43.62,1.57-.06,1.74.74,2.1-.12,2.16.6,2.58-.69.3,0,2.26,1.27,2.79-1h1l2.58.15,2.43-1,1.62-.57,1-.44,2.62.26,1.93-1.77.77-.16L69.07,89l2.8-1,1.85-1.74.61-.5,2.33-.52,1.51-1.89,1.71-.92,1.59-2.16.76-1.22L83.8,78l.87-1.62L86.51,75l.74-2.54,1.69-3,1-2.72-.08-1,1.57-1.56Z"/><path class="cls-2" d="M60.73,49.12c-1.54,3-5.22,5.76-9.95,7.1a17.06,17.06,0,0,1-11-.19c4.58-.54,9.49-3.44,13.11-7.83.18-.23.37-.46.54-.69A13.39,13.39,0,0,1,60.73,49.12Z"/><path class="cls-3" d="M55,35.31a19,19,0,0,1-4.26,11.23c-.24.31-.49.61-.74.9-3,3.47-6.89,5.77-10.51,6.24l-.15,0c-.52-4,1-8.78,4.16-12.8s7.43-6.69,11.4-7.15A13.05,13.05,0,0,1,55,35.31Z"/></g></g></svg>